# xmcd
#
# Track frame offsets: 
#        150
#        12625
#        38777
#        65781
#        90454
#        102925
#        120989
#        137541
#        159345
#        176414
#        203506
#        220984
#        241391
#        259649
#        274253
#
# Disc length: 4067 seconds
#
# Revision: 0
# Processed by: cddbd v1.5.2PL0 Copyright (c) Steve Scherf et al.
# Submitted via: ExactAudioCopy v1.0b1
#
DISCID=cb0fe10f
DTITLE=Various Artist - Rock and Guitar Gods CD 1
DYEAR=1900
DGENRE=
TTITLE0=Jimmy Page - 'Cause I Love You
TTITLE1=Jimmy Page - Burn Up
TTITLE2=Yes - Astral Traveller
TTITLE3=Yes - Beyond And Before
TTITLE4=Steve Howe - Goodbye Blue Sky
TTITLE5=Steve Jones and Billy Duffy - Elected
TTITLE6=Slash and Roger Daltrey - No More Mr. Nice Guy
TTITLE7=Ted Nugent - Rag Doll
TTITLE8=Ted Nugent - Tie Your Mother Down
TTITLE9=Adrian Belew - Mother
TTITLE10=Micheal Schenker and Leslie West - Blood On The Sun
TTITLE11=Yngwie Malmsteen and Ronnie James Dio - Dream On'
TTITLE12=Sweet - Fox On The Run
TTITLE13=Steve Morse - Another Brick In The Wall (Part 1)
TTITLE14=Steve Lukather - Shine On You Crazy Diamond
EXTD=
EXTT0=
EXTT1=
EXTT2=
EXTT3=
EXTT4=
EXTT5=
EXTT6=
EXTT7=
EXTT8=
EXTT9=
EXTT10=
EXTT11=
EXTT12=
EXTT13=
EXTT14=
PLAYORDER=
